<?xml version="1.0" encoding="utf-8"?>
<!-- Generator: Adobe Illustrator 25.3.1, SVG Export Plug-In . SVG Version: 6.00 Build 0)  -->
<svg version="1.1" id="Layer_1" xmlns="http://www.w3.org/2000/svg" xmlns:xlink="http://www.w3.org/1999/xlink" x="0px" y="0px"
	 viewBox="0 0 59 55.2" style="enable-background:new 0 0 59 55.2;" xml:space="preserve">
<style type="text/css">
	.st0{fill:#FFFFFF;}
</style>
<g>
	<g>
		<g>
			<path class="st0" d="M59,55.2H0V0h59V55.2z M1,54.2h57V1H1V54.2z"/>
		</g>
	</g>
	<g>
		<path class="st0" d="M3.7,16.9V3.1h2.7l5.6,9.2V3.1h2.6v13.8h-2.8l-5.6-9v9H3.7z"/>
		<path class="st0" d="M24.1,16.9v-1.5c-0.4,0.5-0.8,1-1.4,1.3s-1.2,0.5-1.9,0.5c-0.7,0-1.3-0.1-1.8-0.4c-0.5-0.3-0.9-0.7-1.2-1.2
			s-0.4-1.3-0.4-2.2V6.9h2.6v4.6c0,1.4,0,2.3,0.1,2.6c0.1,0.3,0.3,0.6,0.5,0.8c0.3,0.2,0.6,0.3,1,0.3c0.5,0,0.9-0.1,1.2-0.4
			s0.6-0.6,0.7-0.9c0.1-0.4,0.2-1.3,0.2-2.7V6.9h2.6v10H24.1z"/>
		<path class="st0" d="M31.8,16.9h-2.6v-10h2.5v1.4c0.4-0.7,0.8-1.1,1.1-1.3c0.3-0.2,0.7-0.3,1.1-0.3c0.6,0,1.2,0.2,1.7,0.5
			l-0.8,2.3C34.4,9.2,34,9,33.6,9c-0.4,0-0.7,0.1-0.9,0.3c-0.3,0.2-0.5,0.6-0.6,1.1c-0.1,0.5-0.2,1.6-0.2,3.3V16.9z"/>
		<path class="st0" d="M35.9,14l2.7-0.4c0.1,0.5,0.3,0.9,0.7,1.2c0.3,0.3,0.8,0.4,1.4,0.4c0.7,0,1.2-0.1,1.5-0.4
			c0.2-0.2,0.3-0.4,0.3-0.7c0-0.2-0.1-0.4-0.2-0.5c-0.1-0.1-0.4-0.2-0.9-0.3c-2.1-0.5-3.5-0.9-4.1-1.3c-0.8-0.5-1.2-1.3-1.2-2.2
			c0-0.9,0.3-1.6,1-2.2s1.7-0.9,3.2-0.9c1.4,0,2.4,0.2,3,0.7c0.7,0.4,1.1,1.1,1.4,2l-2.5,0.5c-0.1-0.4-0.3-0.7-0.6-0.9
			c-0.3-0.2-0.7-0.3-1.3-0.3c-0.7,0-1.2,0.1-1.5,0.3c-0.2,0.1-0.3,0.3-0.3,0.5c0,0.2,0.1,0.3,0.3,0.5c0.2,0.2,1.1,0.4,2.5,0.7
			s2.4,0.7,2.9,1.2c0.6,0.5,0.8,1.1,0.8,2c0,0.9-0.4,1.7-1.1,2.4c-0.8,0.7-1.9,1-3.4,1c-1.4,0-2.4-0.3-3.2-0.8
			C36.6,15.7,36.1,15,35.9,14z"/>
		<path class="st0" d="M53.3,13.7l2.6,0.4c-0.3,1-0.9,1.7-1.6,2.2s-1.6,0.8-2.7,0.8c-1.7,0-3-0.6-3.9-1.7c-0.7-0.9-1-2.1-1-3.4
			c0-1.7,0.4-3,1.3-3.9c0.9-0.9,2-1.4,3.3-1.4c1.5,0,2.7,0.5,3.5,1.5s1.3,2.5,1.2,4.5h-6.6c0,0.8,0.2,1.4,0.6,1.8
			c0.4,0.4,0.9,0.7,1.5,0.7c0.4,0,0.8-0.1,1-0.3S53.2,14.2,53.3,13.7z M53.5,11c0-0.8-0.2-1.3-0.6-1.7S52,8.7,51.5,8.7
			c-0.6,0-1.1,0.2-1.4,0.6s-0.6,1-0.6,1.7H53.5z"/>
		<path class="st0" d="M3.6,23h5.6v15.1c0,2.4,0.1,4,0.2,4.7c0.2,1.1,0.8,2.1,1.7,2.8c0.9,0.7,2.1,1,3.7,1c1.6,0,2.8-0.3,3.6-1
			c0.8-0.7,1.3-1.5,1.5-2.4c0.2-1,0.2-2.5,0.2-4.7V23h5.6v14.7c0,3.4-0.2,5.7-0.5,7.1c-0.3,1.4-0.9,2.6-1.7,3.5
			c-0.8,1-1.9,1.7-3.3,2.3c-1.4,0.6-3.2,0.8-5.4,0.8c-2.7,0-4.7-0.3-6.1-0.9s-2.5-1.4-3.3-2.4c-0.8-1-1.3-2-1.6-3.1
			c-0.4-1.6-0.6-4-0.6-7.1V23z"/>
		<path class="st0" d="M29.4,41.9l5.5-0.5c0.3,1.8,1,3.2,2,4.1c1,0.9,2.4,1.3,4.1,1.3c1.8,0,3.2-0.4,4.1-1.2
			c0.9-0.8,1.4-1.7,1.4-2.7c0-0.7-0.2-1.2-0.6-1.7s-1.1-0.9-2-1.2c-0.7-0.2-2.2-0.6-4.5-1.2C36.3,38,34.2,37,33,36
			c-1.7-1.5-2.6-3.4-2.6-5.6c0-1.4,0.4-2.8,1.2-4c0.8-1.2,2-2.2,3.5-2.8s3.3-1,5.5-1c3.5,0,6.1,0.8,7.9,2.3c1.8,1.5,2.7,3.6,2.8,6.1
			l-5.6,0.2c-0.2-1.4-0.8-2.5-1.6-3.1c-0.8-0.6-2-0.9-3.6-0.9c-1.6,0-2.9,0.3-3.8,1c-0.6,0.4-0.9,1-0.9,1.7c0,0.7,0.3,1.2,0.8,1.7
			c0.7,0.6,2.4,1.2,5.2,1.9c2.7,0.6,4.8,1.3,6.1,2c1.3,0.7,2.3,1.6,3.1,2.8c0.7,1.2,1.1,2.7,1.1,4.4c0,1.6-0.4,3.1-1.3,4.5
			c-0.9,1.4-2.1,2.4-3.8,3.1c-1.6,0.7-3.6,1-6.1,1c-3.5,0-6.2-0.8-8.1-2.4S29.8,45,29.4,41.9z"/>
	</g>
</g>
<circle class="st0" cx="27.5" cy="48.8" r="2.6"/>
<circle class="st0" cx="53.8" cy="48.8" r="2.6"/>
</svg>
